<svg id="Calque_1" data-name="Calque 1" xmlns="http://www.w3.org/2000/svg" xmlns:xlink="http://www.w3.org/1999/xlink" viewBox="0 0 247 162.03"><defs><style>.cls-1{fill:#f2f2f2;}.cls-2{fill:#2d2d2d;}.cls-3{fill:#fc4e54;}.cls-4{font-size:18px;fill:#e2e2e2;}.cls-4,.cls-8{font-family:Cargo-Regular, Cargo;}.cls-5{letter-spacing:-0.01em;}.cls-6{letter-spacing:-0.01em;}.cls-7{letter-spacing:-0.03em;}.cls-8{font-size:12px;}.cls-9{letter-spacing:-0.02em;}.cls-10{letter-spacing:-0.01em;}.cls-11{letter-spacing:-0.03em;}.cls-12{letter-spacing:0em;}.cls-13{font-size:6px;}.cls-13,.cls-17{font-family:Dosis-Regular, Dosis;}.cls-14{letter-spacing:0em;}.cls-15{letter-spacing:0em;}.cls-16{letter-spacing:-0.05em;}.cls-17{font-size:9px;}.cls-18{letter-spacing:-0.02em;}.cls-19{letter-spacing:0em;}.cls-20{letter-spacing:-0.01em;}.cls-21{letter-spacing:-0.02em;}.cls-22{letter-spacing:-0.01em;}.cls-23{letter-spacing:0em;}.cls-24{fill:#ff3940;}</style></defs><rect class="cls-1" width="247" height="162"/><polygon class="cls-2" points="155 0 200.82 45.82 246.63 0 155 0"/><polygon class="cls-3" points="247 162 247 0.87 246.56 0.43 85 162 247 162"/><text class="cls-4" transform="translate(11.19 30.19)">Al<tspan class="cls-5" x="14.36" y="0">ex</tspan><tspan x="32.09" y="0">and</tspan><tspan class="cls-6" x="61.69" y="0">r</tspan><tspan x="68.58" y="0">e BE</tspan><tspan class="cls-6" x="102.42" y="0">C</tspan><tspan class="cls-7" x="112.32" y="0">A</tspan><tspan x="121.17" y="0">VIN_</tspan></text><text class="cls-8" transform="translate(12.4 30.68)">Al<tspan class="cls-9" x="9.58" y="0">ex</tspan><tspan x="21.4" y="0">and</tspan><tspan class="cls-10" x="41.12" y="0">r</tspan><tspan x="45.72" y="0">e BE</tspan><tspan class="cls-10" x="68.28" y="0">C</tspan><tspan class="cls-11" x="74.88" y="0">A</tspan><tspan class="cls-12" x="80.78" y="0">VIN_</tspan></text><text class="cls-13" transform="translate(12.89 42.98)">Étudiant en dé<tspan class="cls-14" x="32.96" y="0">v</tspan><tspan class="cls-15" x="35.47" y="0">eloppement </tspan><tspan class="cls-16" x="64.19" y="0">W</tspan><tspan x="68.61" y="0">eb</tspan></text><image width="3000" height="2900" transform="translate(184 104) scale(0.02)" xlink:href="../../../../../telechargement/Portfolio%20(1).png"/><path d="M30.63,55H17.26a1.43,1.43,0,0,0-1.42,1.43V65a1.42,1.42,0,0,0,1.42,1.42H30.63A1.43,1.43,0,0,0,32.06,65V56.43A1.43,1.43,0,0,0,30.63,55Zm-.2,1L25,61.4a1.38,1.38,0,0,1-1,.42,1.42,1.42,0,0,1-1-.42L17.46,56ZM16.79,64.79V56.62l4.1,4.08Zm.67.66,4.11-4.08.7.7a2.37,2.37,0,0,0,3.36,0l.7-.7,4.1,4.08Zm13.65-.66L27,60.7l4.11-4.08Z" transform="translate(3 3)"/><text class="cls-17" transform="translate(39.28 66.49)">alexand<tspan class="cls-18" x="26.36" y="0">r</tspan><tspan class="cls-19" x="29.14" y="0">e.bec</tspan><tspan class="cls-20" x="46.99" y="0">a</tspan><tspan x="50.88" y="0">vin@gmail.</tspan><tspan class="cls-20" x="87.42" y="0">c</tspan><tspan x="91.08" y="0">om</tspan></text><path d="M27.25,93.64h-6.6a1.13,1.13,0,0,0-1.13,1.12v13.11A1.13,1.13,0,0,0,20.65,109h6.6a1.12,1.12,0,0,0,1.12-1.13V94.76A1.12,1.12,0,0,0,27.25,93.64Zm.67,12.21H21.55a.23.23,0,1,0,0,.45h6.37v1.57a.67.67,0,0,1-.67.68h-6.6a.67.67,0,0,1-.68-.68V106.3h.68a.22.22,0,0,0,.22-.23.22.22,0,0,0-.22-.22H20v-10h8Zm0-10.41H20v-.68a.67.67,0,0,1,.68-.67h6.6a.67.67,0,0,1,.67.67Z" transform="translate(3 3)"/><path d="M24.85,94.54H24A.23.23,0,1,0,24,95h.9a.22.22,0,0,0,.22-.23A.22.22,0,0,0,24.85,94.54Z" transform="translate(3 3)"/><path d="M24,106.75a.68.68,0,1,0,.67.67A.67.67,0,0,0,24,106.75Zm0,.9a.23.23,0,1,1,0-.45.22.22,0,0,1,.22.22A.22.22,0,0,1,24,107.65Z" transform="translate(3 3)"/><circle cx="26.05" cy="97.76" r="0.23"/><text class="cls-17" transform="translate(39.28 108.49)">07 83 31 25 02</text><path d="M21.41,84.2H19.55v-6h1.86Zm.18-7.89a1.09,1.09,0,1,0-2.17,0,1.09,1.09,0,0,0,2.17,0Zm6.75,4.6c0-1.61-.34-2.8-2.21-2.8a1.93,1.93,0,0,0-1.76.92h0v-.82h-1.8v6h1.8v-3c0-.78.2-1.53,1.16-1.53s1,.88,1,1.58V84.2h1.83Zm2.38,4V74.59A1.59,1.59,0,0,0,29.13,73H18.76a1.59,1.59,0,0,0-1.59,1.59V85a1.59,1.59,0,0,0,1.59,1.59H29.13A1.59,1.59,0,0,0,30.72,85Zm-1.59-10.9a.53.53,0,0,1,.53.53V85a.52.52,0,0,1-.53.53H18.76a.53.53,0,0,1-.53-.53V74.59a.53.53,0,0,1,.53-.53Z" transform="translate(3 3)"/><text class="cls-17" transform="translate(39.28 86.49)">Alexand<tspan class="cls-21" x="27.26" y="0">r</tspan><tspan x="30.04" y="0">e Bec</tspan><tspan class="cls-22" x="48.64" y="0">a</tspan><tspan class="cls-23" x="52.52" y="0">vin</tspan></text><path d="M31.08,117.07l-1,.05.54-1.52s-1.66.61-2.08.72a3.34,3.34,0,0,0-3.93-.32,2.71,2.71,0,0,0-1.3,2.8,7.24,7.24,0,0,1-4.7-2.65l-.39-.47-.3.54a3.26,3.26,0,0,0,0,3.06l-.34-.13,0,.56A3,3,0,0,0,18,121.5a3.21,3.21,0,0,0,.39.49l-.17,0,.21.65a3.11,3.11,0,0,0,1.62,1.87c-.76.32-1.36.53-2.37.86l-.91.3.84.46a8.76,8.76,0,0,0,2.59.94c2.51.4,5.32.08,7.22-1.63a6.79,6.79,0,0,0,2-5.62,1.44,1.44,0,0,1,.25-.87C30.08,118.45,31.08,117.07,31.08,117.07Zm-2,1.35a2.19,2.19,0,0,0-.41,1.41,5.94,5.94,0,0,1-1.74,5c-1.47,1.33-3.85,1.85-6.53,1.43a6.9,6.9,0,0,1-1.4-.42,21.78,21.78,0,0,0,2.54-1l1.46-.69-1.62-.1a2.29,2.29,0,0,1-1.81-1,2.59,2.59,0,0,0,.62-.1l1.54-.43L20.14,122a2.29,2.29,0,0,1-1.41-1,2.43,2.43,0,0,1-.3-.67,4,4,0,0,0,.63.1l1.43.14-1.13-.89a2.39,2.39,0,0,1-.91-2.52,8.32,8.32,0,0,0,5.86,2.52,7,7,0,0,0-.08-.71,1.92,1.92,0,0,1,.84-2.3A2.5,2.5,0,0,1,28,117a.75.75,0,0,0,.68.18,4.93,4.93,0,0,0,.57-.17l-.36,1h.46C29.28,118.12,29.18,118.26,29.05,118.42Z" transform="translate(3 3)"/><text class="cls-17" transform="translate(39.28 127.49)">@AlexBec<tspan class="cls-22" x="33.66" y="0">a</tspan><tspan class="cls-23" x="37.55" y="0">vin</tspan></text><polygon class="cls-24" points="246.49 0 87.16 159.33 85.06 162.03 138.22 162.03 247 21.82 247 0 246.49 0"/></svg>