<svg id="Capa_1" data-name="Capa 1" xmlns="http://www.w3.org/2000/svg" viewBox="0 0 512 360"><defs><style>.cls-1{fill:#fff;}</style></defs><path class="cls-1" d="M507.49,101.72,352.21,256,507.49,410.28A44.44,44.44,0,0,0,512,391V121A44.44,44.44,0,0,0,507.49,101.72Z" transform="translate(0 -76)"/><path class="cls-1" d="M467,76H45a44.44,44.44,0,0,0-19.28,4.51L224.18,278a45,45,0,0,0,63.64,0L486.28,80.51A44.44,44.44,0,0,0,467,76Z" transform="translate(0 -76)"/><path class="cls-1" d="M4.51,101.72A44.44,44.44,0,0,0,0,121V391a44.44,44.44,0,0,0,4.51,19.28L159.79,256Z" transform="translate(0 -76)"/><path class="cls-1" d="M331,277.21l-22,22a75.08,75.08,0,0,1-106.06,0l-22-22L25.72,431.49A44.44,44.44,0,0,0,45,436H467a44.44,44.44,0,0,0,19.28-4.51Z" transform="translate(0 -76)"/></svg>